<svg width="190" height="96" viewBox="0 0 190 96" fill="none" xmlns="http://www.w3.org/2000/svg">
<path d="M42.2188 6.74768L0 95.5926H11.0334L42.2188 29.9696L73.3738 95.5926H84.4073L42.2188 6.74768Z" fill="#D31C5B"/>
<path d="M49.2097 77.0821C49.2097 80.9422 46.079 84.0729 42.2188 84.0729C38.3586 84.0729 35.2279 80.9422 35.2279 77.0821C35.2279 73.2219 38.3586 70.0912 42.2188 70.0912C46.079 70.0912 49.2097 73.2219 49.2097 77.0821Z" fill="#D31C5B"/>
<path d="M165.35 43.6475L140.942 95.5927H151.611L165.35 66.8693L178.967 95.5927H190L165.35 43.6475Z" fill="#D31C5B"/>
<path d="M119.422 43.6474L131.398 68.9969L143.343 43.6474H154.377L135.897 82.9787V95.5927H126.839V82.9787L112.766 53.0395H98.237V95.5927H89.1185V53.0395H77.933L73.5562 43.6474H89.0273V17.9027V14.0122C89.0273 6.29179 95.2887 0 103.039 0C110.76 0 117.021 6.2614 117.021 14.0122H107.781C107.781 11.3678 105.653 9.24012 103.009 9.24012C100.395 9.24012 98.2674 11.3678 98.237 13.9818V43.6778L119.422 43.6474Z" fill="#D31C5B"/>
</svg>
